<svg xmlns="http://www.w3.org/2000/svg" width="52" height="31" viewBox="0 0 52 31" fill="none">
  <path d="M26.8551 28.3927V28.3927C29.2091 25.0824 31.1738 21.4468 31.6894 17.4178C31.963 15.2804 32.0824 12.8766 31.8261 10.5598C31.258 5.42392 27.802 2.71332 26.145 2C24.488 2.47554 21.032 4.85327 20.4638 10.5598M26.8551 28.3927C25.6716 27.2039 23.1624 24.5408 22.5943 23.3995C21.8841 21.9729 19.7537 17.693 20.4638 10.5598M26.8551 28.3927L30.6103 26.6781C33.3023 25.4491 35.8757 23.9101 37.814 21.674C39.0028 20.3025 40.2194 18.6641 41.0579 16.9796M26.8551 28.3927C25.6053 28.9634 25.8609 22.4484 26.145 19.1196M26.8551 28.3927C27.4232 26.6808 26.6184 21.4973 26.145 19.1196M26.8551 28.3927C25.6568 28.3927 23.7475 27.7315 21.8979 26.9321C18.9949 25.6774 16.3941 23.7613 14.5275 21.2083C13.6672 20.0318 12.7532 18.6091 11.9421 16.9796M26.8551 28.3927C26.8551 26.2528 28.9856 22.6862 32.5363 19.8329C35.3769 17.5503 39.4009 16.9796 41.0579 16.9796M26.8551 28.3927C29.6958 29.3438 35.7527 30.4383 38.2174 29.8193C41.0579 29.106 43.8398 28.4517 48.1594 24.1128C51 21.2595 51 19.8329 51 19.1196C49.8164 18.1685 46.1709 16.409 41.0579 16.9796M26.8551 28.3927C26.8551 26.9661 23.3043 21.9729 20.4638 19.8329C18.1915 18.121 13.8359 17.2174 11.9421 16.9796M26.8551 28.3927C24.0145 29.5816 17.6233 30.5327 12.6521 29.106C7.76626 27.7039 2.71014 23.3995 2 19.1196C2.94692 18.1685 6.26102 16.409 11.9421 16.9796M20.4638 10.5598C16.4871 6.56523 12.6523 6.51767 11.2319 6.99322C10.2851 8.41985 9.54529 12.1644 11.9421 16.9796M20.4638 10.5598C22.1208 12.2242 25.5769 16.2663 26.145 19.1196M41.0579 16.9796C42.7622 13.5557 42.2415 8.89539 41.768 6.99322C41.5313 6.75544 40.2057 6.56523 36.797 7.70653C33.3884 8.84784 31.116 11.0353 30.4058 11.9864C29.2223 13.6508 26.7131 17.4076 26.145 19.1196" stroke="#593825" stroke-width="2"/>
</svg>