<svg xmlns="http://www.w3.org/2000/svg" width="79" height="88" viewBox="0 0 79 88" fill="none">
  <path d="M39.5 8.31981C39.5 -15.4552 54.3927 18.2466 48.446 28.5409C54.4033 18.2466 91.1139 14.2623 70.4694 26.1524C91.1139 14.2623 69.3014 44.0008 57.3868 44.0008C69.3014 44.0008 91.1139 73.7232 70.4694 61.8489C91.1139 73.7391 54.4033 69.7549 48.446 59.4606C54.4033 69.7549 39.5 103.457 39.5 79.6817C39.5 103.457 24.602 69.7549 30.5538 59.4606C24.5967 69.7549 -12.1141 73.7391 8.53047 61.8489C-12.1141 73.7391 9.69872 44.0008 21.6181 44.0008C9.69872 44.0008 -12.1141 14.278 8.53047 26.1524C-12.1141 14.2623 24.5967 18.2466 30.5538 28.5409C24.602 18.2361 39.5 -15.4552 39.5 8.31981Z" fill="#8AB2B5"/>
</svg>