<svg xmlns="http://www.w3.org/2000/svg" width="37" height="37" viewBox="0 0 37 37" fill="none">
  <g clip-path="url(#clip0_38_1280)">
    <path d="M37 18.5C37 8.28273 28.7173 0 18.5 0C8.28273 0 0 8.28273 0 18.5C0 27.7337 6.76515 35.3874 15.6094 36.7753V23.8477H10.9121V18.5H15.6094V14.4242C15.6094 9.78766 18.3714 7.22656 22.5971 7.22656C24.6205 7.22656 26.7383 7.58789 26.7383 7.58789V12.1406H24.4055C22.1075 12.1406 21.3906 13.5668 21.3906 15.0312V18.5H26.5215L25.7013 23.8477H21.3906V36.7753C30.2349 35.3874 37 27.7337 37 18.5Z" fill="white"/>
  </g>
  <defs>
    <clipPath id="clip0_38_1280">
      <rect width="37" height="37" fill="white"/>
    </clipPath>
  </defs>
</svg>