<svg xmlns="http://www.w3.org/2000/svg" width="37" height="37" viewBox="0 0 37 37" fill="none">
  <g clip-path="url(#clip0_38_1277)">
    <path fill-rule="evenodd" clip-rule="evenodd" d="M37 18.5C37 28.7173 28.7173 37 18.5 37C8.28273 37 0 28.7173 0 18.5C0 8.28273 8.28273 0 18.5 0C28.7173 0 37 8.28273 37 18.5ZM19.163 13.6575C17.3636 14.4059 13.7673 15.955 8.37417 18.3047C7.49841 18.653 7.03965 18.9937 6.99788 19.3268C6.9273 19.8898 7.63235 20.1115 8.59243 20.4134C8.72303 20.4545 8.85835 20.497 8.99707 20.5421C9.94165 20.8491 11.2123 21.2084 11.8728 21.2226C12.472 21.2356 13.1407 20.9886 13.8791 20.4816C18.918 17.0801 21.5192 15.3609 21.6825 15.3238C21.7977 15.2977 21.9573 15.2648 22.0655 15.3609C22.1737 15.4571 22.1631 15.6392 22.1516 15.688C22.0817 15.9858 19.3142 18.5587 17.882 19.8902C17.4355 20.3053 17.1188 20.5998 17.054 20.667C16.909 20.8177 16.7612 20.9601 16.6191 21.0971C15.7416 21.943 15.0835 22.5774 16.6556 23.6134C17.411 24.1112 18.0156 24.5229 18.6186 24.9336C19.2773 25.3821 19.9342 25.8295 20.7842 26.3867C21.0007 26.5286 21.2075 26.676 21.409 26.8196C22.1754 27.3661 22.8641 27.857 23.7148 27.7787C24.2092 27.7332 24.7198 27.2684 24.9791 25.882C25.592 22.6057 26.7967 15.5068 27.0751 12.5815C27.0995 12.3252 27.0688 11.9972 27.0442 11.8532C27.0195 11.7092 26.968 11.5041 26.7809 11.3522C26.5592 11.1724 26.217 11.1344 26.064 11.1371C25.3682 11.1494 24.3006 11.5206 19.163 13.6575Z" fill="white"/>
  </g>
  <defs>
    <clipPath id="clip0_38_1277">
      <rect width="37" height="37" fill="white"/>
    </clipPath>
  </defs>
</svg>