<svg xmlns="http://www.w3.org/2000/svg" width="37" height="44" viewBox="0 0 37 44" fill="none">
  <path d="M35.5711 19.4529L4.57765 0.445581C4.12045 0.164422 3.59665 0.0107847 3.0604 0.000547342C2.52415 -0.00969002 1.9949 0.123845 1.52735 0.387349C1.0623 0.643403 0.674888 1.02066 0.406049 1.47926C0.137211 1.93786 -0.00306401 2.46075 5.07644e-05 2.99269V41.0073C-0.00306401 41.5392 0.137211 42.0621 0.406049 42.5207C0.674888 42.9793 1.0623 43.3566 1.52735 43.6127C1.9949 43.8762 2.52415 44.0097 3.0604 43.9995C3.59665 43.9892 4.12045 43.8356 4.57765 43.5544L35.5711 24.5471C36.0074 24.2813 36.368 23.9073 36.6183 23.4612C36.8685 23.0151 37 22.5118 37 22C37 21.4882 36.8685 20.9849 36.6183 20.5388C36.368 20.0927 36.0074 19.7187 35.5711 19.4529ZM34.2245 22.3386L3.22674 41.3459C3.15983 41.3862 3.08324 41.4075 3.00518 41.4075C2.92712 41.4075 2.85053 41.3862 2.78361 41.3459C2.71878 41.3142 2.66418 41.2648 2.62613 41.2034C2.58807 41.142 2.56809 41.071 2.5685 40.9987V2.99269C2.56809 2.92037 2.58807 2.84941 2.62613 2.78798C2.66418 2.72655 2.71878 2.67714 2.78361 2.64545C2.85321 2.60654 2.93198 2.58717 3.01163 2.58938C3.08798 2.59212 3.16223 2.61519 3.22674 2.65624L34.2245 21.6614C34.2834 21.696 34.3322 21.7455 34.3662 21.8049C34.4001 21.8643 34.418 21.9315 34.418 22C34.418 22.0685 34.4001 22.1357 34.3662 22.1951C34.3322 22.2545 34.2834 22.304 34.2245 22.3386Z" fill="white"/>
</svg>