<svg xmlns="http://www.w3.org/2000/svg" width="37" height="37" viewBox="0 0 37 37" fill="none">
  <path d="M36.6314 11.0999C36.6314 11.0999 36.2701 8.54893 35.1572 7.42881C33.748 5.95459 32.1727 5.94736 31.45 5.86064C26.2758 5.48486 18.5072 5.48486 18.5072 5.48486H18.4928C18.4928 5.48486 10.7242 5.48486 5.55 5.86064C4.82734 5.94736 3.25195 5.95459 1.84277 7.42881C0.729883 8.54893 0.375781 11.0999 0.375781 11.0999C0.375781 11.0999 0 14.0989 0 17.0907V19.8946C0 22.8864 0.368555 25.8855 0.368555 25.8855C0.368555 25.8855 0.729883 28.4364 1.83555 29.5565C3.24473 31.0308 5.09473 30.9802 5.91855 31.1392C8.88144 31.421 18.5 31.5077 18.5 31.5077C18.5 31.5077 26.2758 31.4933 31.45 31.1247C32.1727 31.038 33.748 31.0308 35.1572 29.5565C36.2701 28.4364 36.6314 25.8855 36.6314 25.8855C36.6314 25.8855 37 22.8937 37 19.8946V17.0907C37 14.0989 36.6314 11.0999 36.6314 11.0999ZM14.6771 23.2983V12.8993L24.6715 18.1169L14.6771 23.2983Z" fill="white"/>
</svg>